<svg width="394" height="305" viewBox="0 0 394 305" fill="none" xmlns="http://www.w3.org/2000/svg">
<g filter="url(#filter0_d_108_233)">
<path fill-rule="evenodd" clip-rule="evenodd" d="M230.085 -115.963C288.579 -111.549 358.157 -134.165 400.721 -96.8574C443.351 -59.4934 433.549 4.43404 427.521 57.0857C422.845 97.9219 386.675 126.628 370.757 164.847C353.252 206.876 373.778 270.161 330.012 291.204C286.022 312.355 237.977 259.814 188.121 252.661C140.93 245.891 91.7147 270.341 48.758 250.855C-0.384293 228.563 -46.0612 189.594 -57.5671 141.211C-69.0757 92.8161 -31.2252 49.5037 -9.78846 4.66247C11.9741 -40.8604 20.3724 -97.8756 68.2366 -121.945C116.094 -146.011 174.874 -120.129 230.085 -115.963Z" fill="url(#paint0_linear_108_233)"/>
</g>
<defs>
<filter id="filter0_d_108_233" x="-63.6992" y="-132.061" width="500.668" height="436.251" filterUnits="userSpaceOnUse" color-interpolation-filters="sRGB">
<feFlood flood-opacity="0" result="BackgroundImageFix"/>
<feColorMatrix in="SourceAlpha" type="matrix" values="0 0 0 0 0 0 0 0 0 0 0 0 0 0 0 0 0 0 127 0" result="hardAlpha"/>
<feOffset dy="4"/>
<feGaussianBlur stdDeviation="2"/>
<feComposite in2="hardAlpha" operator="out"/>
<feColorMatrix type="matrix" values="0 0 0 0 0 0 0 0 0 0 0 0 0 0 0 0 0 0 0.25 0"/>
<feBlend mode="normal" in2="BackgroundImageFix" result="effect1_dropShadow_108_233"/>
<feBlend mode="normal" in="SourceGraphic" in2="effect1_dropShadow_108_233" result="shape"/>
</filter>
<linearGradient id="paint0_linear_108_233" x1="329.173" y1="249.152" x2="44.7216" y2="112.732" gradientUnits="userSpaceOnUse">
<stop stop-color="#2A29E8"/>
<stop offset="1" stop-color="#586FE9"/>
</linearGradient>
</defs>
</svg>
